<?xml version="1.0" encoding="utf-8"?>
<!-- Generator: Adobe Illustrator 17.0.0, SVG Export Plug-In . SVG Version: 6.00 Build 0)  -->
<!DOCTYPE svg PUBLIC "-//W3C//DTD SVG 1.1//EN" "http://www.w3.org/Graphics/SVG/1.1/DTD/svg11.dtd">
<svg version="1.1" id="Ebene_1" xmlns="http://www.w3.org/2000/svg" xmlns:xlink="http://www.w3.org/1999/xlink" x="0px" y="0px"
	 width="595.28px" height="841.89px" viewBox="0 0 595.28 841.89" enable-background="new 0 0 595.28 841.89" xml:space="preserve">
<g>
	<g>
		<path fill="#008AC7" d="M144.86,467.658c0.017-0.073,0.02-0.135,0.028-0.201c-0.053,0.014-0.101,0.019-0.157,0.038
			C144.731,467.495,144.86,467.659,144.86,467.658z"/>
		<path fill="#008AC7" d="M146.777,468.634c-0.009-0.015-0.018-0.03-0.026-0.045c-0.024-0.003-0.043-0.011-0.068-0.013
			L146.777,468.634z"/>
		<path fill="#008AC7" d="M446.611,374.094c-5.001-3.513-10.27-6.498-15.964-8.719c-1.389-0.542-2.824-0.918-2.803-2.89
			c0.137-13.001-4.874-24.291-11.693-34.972c-0.001,0,0.225-0.019,0.225-0.019c-0.71-0.007-0.91-0.492-1.033-1.049
			c-0.381-0.369-0.762-0.737-1.144-1.107c-0.272-0.18-0.594-0.311-0.805-0.544c-21.553-23.706-48.082-29.351-78.171-21.127
			c-3.984,1.089-5.684,0.545-7.643-2.955c-6.857-12.256-16.977-21.288-29.299-27.802c-22.346-11.813-45.712-13.83-69.84-6.513
			c-37.878,11.487-64.235,48.86-50.096,88.879c1.062,3.007,0.487,3.996-2.499,4.571c-7.322,1.412-14.099,4.282-20.655,7.848
			c-26.949,14.659-39.259,47.506-28.041,74.844c3.753,9.146,9.797,16.591,16.58,23.56c0.668,0.247,1.248,0.558,1.157,1.356
			c0.973-0.255,1.444,0.391,1.863,1.133c0.599,0.078,1.053,0.311,1.048,1.033l-0.001-0.177c10.3,6.657,21.167,11.942,33.529,13.373
			c4.238,0.491,8.522,0.82,12.785,0.821c22.836,0.007,45.671-0.001,68.507-0.01l5.338-15.618c1.567-4.585,5.882-7.665,10.735-7.665
			c1.249,0,2.481,0.206,3.666,0.612l13.82,4.74c1.059,0.363,2.025,0.873,2.893,1.492l5.757-16.784
			c1.857-5.422,5.556-6.008,7.06-6.008c1.255,0,5.475,0.471,7.068,6.523l8.61,32.687c26.769-0.005,53.538-0.003,80.308,0.031
			c16.136,0.021,30.897-3.275,43.47-14.16C481.074,443.742,478.796,396.7,446.611,374.094z"/>
		<path fill="#008AC7" d="M415.324,326.374c0.005,0.025,0.014,0.047,0.019,0.072c0.013,0.013,0.026,0.025,0.039,0.038
			L415.324,326.374z"/>
	</g>
	<text transform="matrix(1 0 0 1 148.357 441.7961)" fill="#FFFFFF" font-family="'Arista2.0Alternate'" font-size="88.5975">cloud.iO</text>
	<g>
		<path fill="#E1A221" d="M310.188,452.247c1.012-2.949,2.489-2.896,3.284,0.12l17.699,67.192c0.794,3.015-0.969,4.655-3.918,3.643
			l-7.179-2.463c-2.949-1.012-6.188,0.575-7.197,3.525l-11.127,32.541c-1.009,2.95-4.247,4.537-7.197,3.525l-13.82-4.74
			c-2.949-1.012-4.535-4.253-3.523-7.202L310.188,452.247z"/>
	</g>
	<g>
		<path fill="#E1A221" d="M264.882,574.404c-1.012,2.949-2.489,2.896-3.284-0.12l-17.699-67.192
			c-0.794-3.015,0.969-4.655,3.918-3.643l7.179,2.462c2.949,1.012,6.188-0.574,7.197-3.525l11.127-32.541
			c1.009-2.95,4.247-4.537,7.197-3.525l13.82,4.74c2.949,1.012,4.535,4.253,3.523,7.202L264.882,574.404z"/>
	</g>
</g>
</svg>
