<?xml version="1.0" encoding="UTF-8" standalone="no"?>
<!DOCTYPE svg PUBLIC "-//W3C//DTD SVG 1.1//EN" "http://www.w3.org/Graphics/SVG/1.1/DTD/svg11.dtd">
<svg width="100%" height="100%" viewBox="0 0 800 600" version="1.1" xmlns="http://www.w3.org/2000/svg" xmlns:xlink="http://www.w3.org/1999/xlink" xml:space="preserve" xmlns:serif="http://www.serif.com/" style="fill-rule:evenodd;clip-rule:evenodd;stroke-linejoin:round;stroke-miterlimit:2;">
    <g transform="matrix(1,0,0,1,0,-270)">
        <g id="cloudiO-background-day" transform="matrix(1,0,0,1,0,270)">
            <rect x="0" y="0" width="800" height="600" style="fill:none;"/>
            <rect x="0" y="0" width="800" height="600" style="fill:url(#_Linear1);"/>
            <g transform="matrix(1,0,0,1,0,-270)">
                <path d="M0,592.177C19.991,593.395 36.058,609.233 37.632,629.122C41.128,628.436 44.74,628.076 48.436,628.076C68.131,628.076 85.46,638.286 95.414,653.696C102.654,648.984 111.309,646.244 120.604,646.244C132.164,646.244 142.733,650.482 150.816,657.475C158.413,652.98 167.294,650.396 176.779,650.396C183.534,650.396 189.982,651.707 195.881,654.086C200.621,649.733 206.961,647.071 213.924,647.071C216.267,647.071 218.539,647.372 220.703,647.938C225.569,642.554 232.633,639.165 240.489,639.165C254.812,639.165 266.502,650.43 267.034,664.503C273.146,662.699 279.615,661.731 286.31,661.731C311.04,661.731 332.684,674.939 344.45,694.619C349.324,688.981 356.557,685.407 364.625,685.407C367.594,685.407 370.45,685.891 373.118,686.784C376.993,675.475 387.797,667.328 400.504,667.328C409.856,667.328 418.177,671.74 423.462,678.576C426.806,676.834 430.613,675.849 434.649,675.849C440.648,675.849 446.138,678.025 450.357,681.623C459.992,670.843 474.06,664.043 489.717,664.043C493.609,664.043 497.402,664.463 501.054,665.26C507.485,653.846 519.792,646.12 533.904,646.12C544.92,646.12 554.836,650.827 561.714,658.32C569.839,649.218 581.706,643.477 594.915,643.477C610.889,643.477 624.901,651.873 632.704,664.456C644.019,653.135 659.708,646.12 677.036,646.12C685.492,646.12 693.557,647.79 700.918,650.818C705.905,631.96 723.225,618.029 743.801,618.029C747.055,618.029 750.228,618.377 753.282,619.038C759.902,603.02 775.79,591.724 794.318,591.724C796.244,591.724 798.141,591.846 800,592.083L800,870L0,870L0,592.177Z" style="fill:rgb(162,217,242);"/>
            </g>
            <g transform="matrix(1,0,0,1,0,-270)">
                <path d="M0,722.908C5.647,718.735 12.628,716.267 20.182,716.267C31.714,716.267 41.914,722.02 48.066,730.811C56.858,722.205 68.893,716.895 82.158,716.895C92.865,716.895 102.77,720.354 110.813,726.212C120.194,700.939 144.535,682.912 173.054,682.912C194.378,682.912 213.367,692.991 225.513,708.643C229.937,707.401 234.601,706.738 239.419,706.738C256.109,706.738 270.953,714.704 280.352,727.037C280.85,727.022 281.351,727.015 281.853,727.015C287.667,727.015 293.257,727.982 298.471,729.763C304.626,720.994 314.815,715.256 326.335,715.256C338.432,715.256 349.064,721.585 355.095,731.106C361.693,727.204 369.389,724.964 377.604,724.964C384.229,724.964 390.517,726.421 396.161,729.031C402.49,720.666 412.526,715.256 423.815,715.256C442.944,715.256 458.473,730.786 458.473,749.915C458.473,750.01 458.473,750.106 458.472,750.201C467.248,751.334 475,755.755 480.451,762.188C491.845,741.301 514.73,727.028 541.08,727.028C544.232,727.028 547.334,727.233 550.368,727.628C550.046,726.121 549.876,724.561 549.876,722.964C549.876,710.147 560.777,699.741 574.203,699.741C583.492,699.741 591.571,704.721 595.669,712.034C598.768,710.667 602.219,709.903 605.855,709.903C619.281,709.903 630.182,720.31 630.182,733.127C630.182,733.799 630.152,734.464 630.093,735.121C637.161,731.765 645.124,729.878 653.545,729.878C668.854,729.878 682.65,736.115 692.295,746.071C691.146,741.94 690.534,737.601 690.534,733.127C690.534,705.32 714.182,682.745 743.31,682.745C768.896,682.745 790.254,700.164 795.069,723.245C796.736,723.354 798.382,723.537 800,723.791L800,870L0,870L0,722.908Z" style="fill:rgb(210,238,250);"/>
            </g>
            <g transform="matrix(1,0,0,1,0,67.1906)">
                <path d="M800,416.742L800,532.809L0,532.809L0,416.838C6.031,414.419 12.617,413.086 19.513,413.086C40.726,413.086 59.017,425.697 67.294,443.826C72.843,440.847 79.183,439.158 85.915,439.158C97.666,439.158 108.224,444.306 115.453,452.466C126.908,438.955 144.227,430.341 163.594,430.341C186.575,430.341 206.672,442.469 217.504,460.507C221.454,457.993 226.141,456.536 231.164,456.536C238.726,456.536 245.523,459.836 250.193,465.073C254.104,456.018 263.119,449.674 273.604,449.674C279.794,449.674 285.472,451.885 289.89,455.56C299.559,443.293 315.307,435.302 333.076,435.302C351.876,435.302 368.413,444.247 377.886,457.741C380.926,444.953 394.456,435.302 410.666,435.302C426.266,435.302 439.383,444.24 443.057,456.307C445.306,456.036 447.603,455.896 449.939,455.896C471.591,455.896 489.908,467.899 495.85,484.357C502.184,484.913 508.249,486.225 513.914,488.184C525.261,472.037 546.281,461.186 570.314,461.186C576.502,461.186 582.49,461.905 588.163,463.249C589.241,450.169 600.211,439.876 613.566,439.876C623.682,439.876 632.43,445.783 636.547,454.333C641.719,452.735 647.26,451.868 653.022,451.868C668.628,451.868 682.61,458.225 691.991,468.237C699.911,460.23 710.905,455.265 723.048,455.265C732.233,455.265 740.76,458.105 747.796,462.953C747.767,462.367 747.753,461.778 747.753,461.186C747.753,440.969 764.167,424.555 784.384,424.555C786.428,424.555 788.433,424.723 790.385,425.045C793.077,421.752 796.331,418.935 800,416.742Z" style="fill:white;"/>
            </g>
        </g>
    </g>
    <defs>
        <linearGradient id="_Linear1" x1="0" y1="0" x2="1" y2="0" gradientUnits="userSpaceOnUse" gradientTransform="matrix(3.67394e-14,-600,450,2.75546e-14,0,600)"><stop offset="0" style="stop-color:rgb(91,203,245);stop-opacity:1"/><stop offset="1" style="stop-color:rgb(15,123,193);stop-opacity:1"/></linearGradient>
    </defs>
</svg>
