<?xml version="1.0" encoding="UTF-8" standalone="no"?>
<!DOCTYPE svg PUBLIC "-//W3C//DTD SVG 1.1//EN" "http://www.w3.org/Graphics/SVG/1.1/DTD/svg11.dtd">
<svg width="100%" height="100%" viewBox="0 0 220 50" version="1.1" xmlns="http://www.w3.org/2000/svg" xmlns:xlink="http://www.w3.org/1999/xlink" xml:space="preserve" xmlns:serif="http://www.serif.com/" style="fill-rule:evenodd;clip-rule:evenodd;stroke-linejoin:round;stroke-miterlimit:2;">
    <g transform="matrix(1,0,0,1,0,-210)">
        <g id="cloudio-text-dark" transform="matrix(1,0,0,0.774615,0,55.0769)">
            <rect x="0" y="200" width="220" height="64.548" style="fill:none;"/>
            <g transform="matrix(0.622596,0,0,0.803749,16.503,254.919)">
                <g transform="matrix(88.5975,0,0,88.5975,0,0)">
                    <path d="M0.267,-0.484C0.334,-0.484 0.39,-0.461 0.437,-0.414C0.448,-0.401 0.454,-0.386 0.453,-0.369C0.452,-0.352 0.445,-0.337 0.433,-0.326C0.421,-0.315 0.406,-0.309 0.387,-0.308C0.368,-0.307 0.353,-0.313 0.341,-0.326C0.32,-0.345 0.296,-0.354 0.267,-0.354C0.252,-0.354 0.237,-0.351 0.224,-0.345C0.21,-0.338 0.198,-0.33 0.188,-0.32C0.177,-0.309 0.169,-0.297 0.163,-0.284C0.157,-0.271 0.154,-0.257 0.154,-0.242C0.154,-0.227 0.157,-0.212 0.163,-0.199C0.169,-0.185 0.177,-0.173 0.188,-0.163C0.199,-0.152 0.211,-0.144 0.224,-0.138C0.237,-0.132 0.252,-0.129 0.267,-0.13C0.296,-0.13 0.321,-0.139 0.341,-0.157C0.353,-0.17 0.368,-0.177 0.387,-0.177C0.406,-0.177 0.421,-0.17 0.433,-0.157C0.439,-0.152 0.444,-0.145 0.447,-0.138C0.45,-0.131 0.452,-0.123 0.453,-0.115C0.453,-0.107 0.452,-0.099 0.449,-0.092C0.446,-0.084 0.442,-0.077 0.437,-0.071C0.414,-0.048 0.388,-0.03 0.36,-0.018C0.332,-0.006 0.301,-0 0.267,-0C0.234,-0 0.202,-0.007 0.173,-0.02C0.144,-0.033 0.118,-0.05 0.096,-0.072C0.074,-0.094 0.057,-0.12 0.044,-0.149C0.031,-0.178 0.024,-0.209 0.024,-0.242C0.024,-0.274 0.031,-0.305 0.044,-0.334C0.057,-0.363 0.074,-0.389 0.097,-0.411C0.119,-0.433 0.145,-0.451 0.174,-0.464C0.203,-0.477 0.234,-0.484 0.267,-0.484Z" style="fill:rgb(11,140,199);fill-rule:nonzero;"/>
                </g>
                <g transform="matrix(88.5975,0,0,88.5975,42.5268,0)">
                    <path d="M0.098,-0.636C0.116,-0.636 0.131,-0.63 0.144,-0.617C0.156,-0.604 0.163,-0.589 0.164,-0.57L0.164,-0.175C0.164,-0.162 0.168,-0.15 0.177,-0.141C0.186,-0.132 0.197,-0.127 0.21,-0.127C0.227,-0.127 0.243,-0.121 0.256,-0.109C0.269,-0.097 0.275,-0.082 0.276,-0.064C0.276,-0.048 0.271,-0.034 0.26,-0.022C0.249,-0.009 0.234,-0.002 0.217,0.001L0.203,0.001C0.18,0.001 0.158,-0.004 0.137,-0.014C0.116,-0.023 0.098,-0.036 0.083,-0.052C0.067,-0.068 0.055,-0.087 0.046,-0.108C0.037,-0.129 0.032,-0.152 0.032,-0.175L0.032,-0.574C0.034,-0.591 0.041,-0.605 0.053,-0.617C0.065,-0.629 0.08,-0.635 0.098,-0.636Z" style="fill:rgb(11,140,199);fill-rule:nonzero;"/>
                </g>
                <g transform="matrix(88.5975,0,0,88.5975,66.3595,0)">
                    <path d="M0.268,-0.485C0.301,-0.485 0.332,-0.479 0.361,-0.466C0.39,-0.453 0.416,-0.436 0.438,-0.414C0.46,-0.392 0.478,-0.366 0.491,-0.337C0.503,-0.308 0.51,-0.276 0.51,-0.242C0.51,-0.209 0.504,-0.178 0.491,-0.149C0.478,-0.119 0.461,-0.094 0.44,-0.072C0.418,-0.05 0.392,-0.033 0.363,-0.02C0.334,-0.007 0.302,-0.001 0.268,-0.001C0.235,-0.001 0.203,-0.007 0.174,-0.019C0.145,-0.031 0.119,-0.048 0.097,-0.07C0.075,-0.091 0.058,-0.117 0.045,-0.146C0.032,-0.175 0.026,-0.207 0.026,-0.242C0.026,-0.275 0.032,-0.307 0.045,-0.336C0.057,-0.365 0.074,-0.39 0.096,-0.412C0.117,-0.433 0.143,-0.451 0.173,-0.464C0.202,-0.476 0.234,-0.484 0.268,-0.485ZM0.268,-0.354C0.253,-0.354 0.238,-0.351 0.225,-0.346C0.212,-0.34 0.2,-0.332 0.19,-0.322C0.179,-0.312 0.171,-0.3 0.165,-0.287C0.159,-0.273 0.156,-0.258 0.156,-0.242C0.156,-0.227 0.159,-0.212 0.165,-0.199C0.171,-0.185 0.179,-0.173 0.19,-0.163C0.2,-0.152 0.212,-0.144 0.225,-0.138C0.238,-0.132 0.253,-0.129 0.268,-0.129C0.283,-0.129 0.298,-0.132 0.312,-0.138C0.325,-0.144 0.337,-0.152 0.347,-0.163C0.357,-0.173 0.365,-0.185 0.371,-0.199C0.377,-0.212 0.38,-0.227 0.38,-0.242C0.379,-0.273 0.368,-0.299 0.347,-0.32C0.326,-0.341 0.3,-0.353 0.268,-0.354Z" style="fill:rgb(11,140,199);fill-rule:nonzero;"/>
                </g>
                <g transform="matrix(88.5975,0,0,88.5975,113.759,0)">
                    <path d="M0.096,-0.485C0.113,-0.485 0.129,-0.478 0.142,-0.466C0.155,-0.452 0.162,-0.437 0.162,-0.418L0.162,-0.242C0.162,-0.227 0.165,-0.212 0.171,-0.199C0.177,-0.185 0.185,-0.173 0.195,-0.163C0.205,-0.153 0.217,-0.145 0.231,-0.139C0.244,-0.133 0.259,-0.13 0.274,-0.13C0.289,-0.13 0.303,-0.133 0.316,-0.138C0.329,-0.143 0.341,-0.151 0.352,-0.16C0.362,-0.169 0.37,-0.181 0.376,-0.194C0.382,-0.207 0.385,-0.222 0.385,-0.237L0.385,-0.419C0.385,-0.436 0.391,-0.451 0.404,-0.464C0.417,-0.477 0.432,-0.484 0.45,-0.485C0.468,-0.485 0.484,-0.478 0.497,-0.466C0.509,-0.452 0.516,-0.438 0.517,-0.422L0.517,-0.242C0.517,-0.209 0.511,-0.177 0.498,-0.148C0.485,-0.119 0.468,-0.093 0.446,-0.071C0.424,-0.049 0.398,-0.032 0.369,-0.019C0.34,-0.006 0.308,-0 0.274,-0C0.242,0.001 0.211,-0.004 0.182,-0.017C0.153,-0.029 0.127,-0.046 0.105,-0.068C0.082,-0.089 0.064,-0.115 0.051,-0.144C0.038,-0.173 0.031,-0.203 0.031,-0.235L0.031,-0.419C0.031,-0.436 0.037,-0.452 0.05,-0.465C0.062,-0.478 0.077,-0.484 0.096,-0.485Z" style="fill:rgb(11,140,199);fill-rule:nonzero;"/>
                </g>
                <g transform="matrix(88.5975,0,0,88.5975,162.311,0)">
                    <path d="M0.432,-0.637C0.449,-0.637 0.464,-0.631 0.478,-0.619C0.491,-0.606 0.497,-0.59 0.497,-0.571L0.497,-0.242C0.497,-0.209 0.491,-0.178 0.478,-0.149C0.464,-0.12 0.447,-0.094 0.425,-0.072C0.402,-0.05 0.376,-0.033 0.347,-0.02C0.318,-0.007 0.287,-0 0.255,-0C0.223,-0 0.192,-0.006 0.163,-0.019C0.134,-0.032 0.108,-0.049 0.086,-0.071C0.063,-0.093 0.045,-0.119 0.032,-0.148C0.019,-0.177 0.012,-0.209 0.012,-0.242C0.012,-0.275 0.019,-0.306 0.032,-0.335C0.045,-0.364 0.062,-0.39 0.085,-0.412C0.107,-0.434 0.133,-0.452 0.162,-0.465C0.191,-0.478 0.222,-0.484 0.255,-0.484C0.295,-0.484 0.332,-0.475 0.366,-0.457L0.366,-0.572C0.366,-0.581 0.368,-0.589 0.372,-0.597C0.375,-0.605 0.38,-0.612 0.386,-0.618C0.392,-0.624 0.399,-0.629 0.407,-0.632C0.415,-0.635 0.423,-0.637 0.432,-0.637ZM0.255,-0.354C0.24,-0.354 0.225,-0.351 0.212,-0.345C0.198,-0.339 0.186,-0.331 0.176,-0.321C0.165,-0.31 0.157,-0.298 0.151,-0.285C0.145,-0.271 0.142,-0.257 0.142,-0.242C0.142,-0.227 0.145,-0.212 0.151,-0.199C0.157,-0.185 0.165,-0.173 0.176,-0.163C0.186,-0.153 0.198,-0.145 0.212,-0.139C0.225,-0.133 0.24,-0.13 0.255,-0.13C0.27,-0.13 0.284,-0.133 0.297,-0.139C0.31,-0.145 0.322,-0.153 0.333,-0.164C0.343,-0.174 0.351,-0.186 0.357,-0.199C0.363,-0.212 0.366,-0.227 0.366,-0.242C0.366,-0.258 0.363,-0.273 0.357,-0.287C0.351,-0.3 0.343,-0.312 0.333,-0.322C0.322,-0.332 0.31,-0.34 0.297,-0.346C0.284,-0.351 0.27,-0.354 0.255,-0.354Z" style="fill:rgb(11,140,199);fill-rule:nonzero;"/>
                </g>
                <g transform="matrix(88.5975,0,0,88.5975,205.192,0)">
                    <path d="M0.162,-0.068C0.162,-0.049 0.155,-0.033 0.142,-0.02C0.129,-0.007 0.112,-0 0.093,-0C0.074,-0 0.058,-0.007 0.046,-0.02C0.033,-0.033 0.026,-0.049 0.026,-0.068C0.026,-0.087 0.033,-0.103 0.046,-0.116C0.058,-0.129 0.074,-0.136 0.093,-0.136C0.112,-0.136 0.129,-0.129 0.142,-0.116C0.155,-0.103 0.162,-0.087 0.162,-0.068Z" style="fill:rgb(11,140,199);fill-rule:nonzero;"/>
                </g>
                <g transform="matrix(88.5975,0,0,88.5975,221.848,0)">
                    <path d="M0.101,-0.634C0.118,-0.634 0.133,-0.628 0.146,-0.615C0.158,-0.602 0.164,-0.586 0.164,-0.569C0.164,-0.552 0.158,-0.537 0.146,-0.524C0.133,-0.51 0.118,-0.504 0.101,-0.504C0.082,-0.505 0.066,-0.511 0.054,-0.523C0.041,-0.534 0.035,-0.551 0.035,-0.572C0.036,-0.589 0.043,-0.604 0.056,-0.616C0.068,-0.628 0.084,-0.634 0.101,-0.634ZM0.101,-0.481C0.118,-0.481 0.133,-0.475 0.145,-0.462C0.156,-0.449 0.163,-0.434 0.164,-0.416L0.164,-0.062C0.164,-0.044 0.158,-0.029 0.147,-0.017C0.136,-0.005 0.12,0.002 0.101,0.003C0.084,0.003 0.069,-0.002 0.057,-0.013C0.045,-0.024 0.038,-0.039 0.035,-0.058L0.035,-0.42C0.036,-0.437 0.043,-0.452 0.056,-0.463C0.069,-0.474 0.084,-0.48 0.101,-0.481Z" style="fill:rgb(11,140,199);fill-rule:nonzero;"/>
                </g>
                <g transform="matrix(88.5975,0,0,88.5975,239.568,0)">
                    <path d="M0.157,-0.32C0.157,-0.294 0.162,-0.27 0.172,-0.247C0.181,-0.224 0.195,-0.204 0.212,-0.188C0.229,-0.171 0.248,-0.157 0.271,-0.148C0.294,-0.138 0.318,-0.133 0.344,-0.133C0.37,-0.133 0.394,-0.138 0.417,-0.148C0.439,-0.157 0.459,-0.171 0.476,-0.188C0.493,-0.204 0.506,-0.224 0.516,-0.247C0.525,-0.27 0.53,-0.294 0.53,-0.32C0.53,-0.346 0.525,-0.37 0.516,-0.393C0.506,-0.415 0.493,-0.435 0.476,-0.452C0.459,-0.468 0.439,-0.482 0.417,-0.492C0.394,-0.501 0.37,-0.506 0.344,-0.506C0.318,-0.506 0.294,-0.501 0.271,-0.492C0.248,-0.482 0.229,-0.468 0.212,-0.452C0.195,-0.435 0.181,-0.415 0.172,-0.393C0.162,-0.37 0.157,-0.346 0.157,-0.32ZM0.025,-0.32C0.025,-0.364 0.033,-0.405 0.05,-0.444C0.067,-0.483 0.089,-0.517 0.118,-0.546C0.147,-0.575 0.181,-0.597 0.22,-0.614C0.259,-0.631 0.3,-0.639 0.344,-0.639C0.388,-0.639 0.429,-0.631 0.468,-0.614C0.507,-0.597 0.54,-0.575 0.569,-0.546C0.598,-0.517 0.62,-0.483 0.637,-0.444C0.654,-0.405 0.662,-0.364 0.662,-0.32C0.662,-0.276 0.654,-0.235 0.637,-0.196C0.62,-0.157 0.598,-0.124 0.569,-0.095C0.54,-0.066 0.507,-0.043 0.468,-0.026C0.429,-0.009 0.388,-0.001 0.344,-0.001C0.3,-0.001 0.259,-0.009 0.22,-0.026C0.181,-0.043 0.147,-0.066 0.118,-0.095C0.089,-0.124 0.067,-0.157 0.05,-0.196C0.033,-0.235 0.025,-0.276 0.025,-0.32Z" style="fill:rgb(11,140,199);fill-rule:nonzero;"/>
                </g>
            </g>
        </g>
    </g>
</svg>
